<?xml version="1.0" encoding="utf-8"?>
<!-- Generator: Adobe Illustrator 21.0.0, SVG Export Plug-In . SVG Version: 6.00 Build 0)  -->
<svg version="1.1" id="Layer_1" xmlns="http://www.w3.org/2000/svg" xmlns:xlink="http://www.w3.org/1999/xlink" x="0px" y="0px"
	 viewBox="0 0 512 512" style="enable-background:new 0 0 512 512;" xml:space="preserve">
<style type="text/css">
	.st0{fill:#FFFFFF;}
</style>
<g>
	<path class="st0" d="M374,9.7c34.2,0,66.3,13.3,90.5,37.5s37.5,56.3,37.5,90.5v236c0,34.2-13.3,66.3-37.5,90.5
		s-56.3,37.5-90.5,37.5H138c-34.2,0-66.3-13.3-90.5-37.5S10,407.9,10,373.7v-236c0-34.2,13.3-66.3,37.5-90.5S103.8,9.7,138,9.7H374
		 M374-0.3H138C61.8-0.3,0,61.5,0,137.7v236c0,76.2,61.8,138,138,138h236c76.2,0,138-61.8,138-138v-236C512,61.5,450.2-0.3,374-0.3
		L374-0.3z"/>
</g>
<path id="Facebook" class="st0" d="M145.5,265.2c0,7.7,0,42.1,0,42.1h-30.9v51.5h30.9V512h63.4V358.9h42.5c0,0,4-24.7,5.9-51.7
	c-5.5,0-48.2,0-48.2,0s0-30,0-35.2c0-5.3,6.9-12.3,13.7-12.3s21.2,0,34.5,0c0-7,0-31.3,0-53.6c-17.8,0-38,0-47,0
	C143.9,206,145.5,257.5,145.5,265.2z"/>
</svg>
