<?xml version="1.0" encoding="utf-8"?>
<!-- Generator: Adobe Illustrator 21.0.0, SVG Export Plug-In . SVG Version: 6.00 Build 0)  -->
<svg version="1.1" id="Layer_1" xmlns="http://www.w3.org/2000/svg" xmlns:xlink="http://www.w3.org/1999/xlink" x="0px" y="0px"
	 viewBox="0 0 512 512" style="enable-background:new 0 0 512 512;" xml:space="preserve">
<style type="text/css">
	.st0{fill:#FFFFFF;}
</style>
<g>
	<path class="st0" d="M374,9.7c34.2,0,66.3,13.3,90.5,37.5s37.5,56.3,37.5,90.5v236c0,34.2-13.3,66.3-37.5,90.5
		s-56.3,37.5-90.5,37.5H138c-34.2,0-66.3-13.3-90.5-37.5S10,407.9,10,373.7v-236c0-34.2,13.3-66.3,37.5-90.5S103.8,9.7,138,9.7H374
		 M374-0.3H138C61.8-0.3,0,61.5,0,137.7v236c0,76.2,61.8,138,138,138h236c76.2,0,138-61.8,138-138v-236C512,61.5,450.2-0.3,374-0.3
		L374-0.3z"/>
</g>
<path class="st0" d="M266.9,156.1c0,0-46.4,0-61.9,0c-27.7,0-53.8,21-53.8,45.3c0,24.9,18.9,44.9,47.1,44.9c2,0,3.9,0,5.7-0.2
	c-1.8,3.5-3.1,7.5-3.1,11.6c0,6.9,3.7,12.5,8.4,17.1c-3.6,0-7,0.1-10.7,0.1c-34.3,0-60.8,21.9-60.8,44.6c0,22.3,29,36.3,63.3,36.3
	c39.2,0,60.8-22.2,60.8-44.6c0-17.9-5.3-28.6-21.6-40.2c-5.6-4-16.3-13.6-16.3-19.2c0-6.6,1.9-9.9,11.9-17.7
	c10.2-8,17.5-19.2,17.5-32.3c0-15.6-6.9-30.7-19.9-35.7H253L266.9,156.1z M245.3,307.4c0.5,2.1,0.8,4.2,0.8,6.4
	c0,18.1-11.6,32.2-45,32.2c-23.7,0-40.9-15-40.9-33.1c0-17.7,21.3-32.4,45-32.2c5.5,0.1,10.7,1,15.4,2.5
	C233.4,292.2,242.7,297.2,245.3,307.4z M207.2,240.1c-15.9-0.5-31.1-17.8-33.8-38.8c-2.8-20.9,7.9-36.9,23.9-36.5
	c15.9,0.5,31.1,17.3,33.8,38.2C233.9,224,223.2,240.6,207.2,240.1z M329.9,200.5v-44.3h-14.8v44.3h-44.3v14.8h44.3v44.3h14.8v-44.3
	h44.3v-14.8H329.9z"/>
</svg>
