<?xml version="1.0" encoding="utf-8"?>
<!-- Generator: Adobe Illustrator 21.0.0, SVG Export Plug-In . SVG Version: 6.00 Build 0)  -->
<svg version="1.1" id="Layer_1" xmlns="http://www.w3.org/2000/svg" xmlns:xlink="http://www.w3.org/1999/xlink" x="0px" y="0px"
	 viewBox="0 0 512 512" style="enable-background:new 0 0 512 512;" xml:space="preserve">
<style type="text/css">
	.st0{fill:#FFFFFF;}
</style>
<g>
	<path class="st0" d="M374,9.7c34.2,0,66.3,13.3,90.5,37.5s37.5,56.3,37.5,90.5v236c0,34.2-13.3,66.3-37.5,90.5
		s-56.3,37.5-90.5,37.5H138c-34.2,0-66.3-13.3-90.5-37.5S10,407.9,10,373.7v-236c0-34.2,13.3-66.3,37.5-90.5S103.8,9.7,138,9.7H374
		 M374-0.3H138C61.8-0.3,0,61.5,0,137.7v236c0,76.2,61.8,138,138,138h236c76.2,0,138-61.8,138-138v-236C512,61.5,450.2-0.3,374-0.3
		L374-0.3z"/>
</g>
<g id="Instagram">
	<path class="st0" d="M164.8,201.5c-2.7,0-5-2.2-5-5V152c0-2.7,2.2-5,5-5c2.7,0,5,2.2,5,5v44.6C169.7,199.3,167.5,201.5,164.8,201.5
		z"/>
	<path class="st0" d="M181.5,201.5c-2.7,0-5-2.2-5-5v-48.3c0-2.7,2.2-5,5-5c2.7,0,5,2.2,5,5v48.3
		C186.4,199.3,184.2,201.5,181.5,201.5z"/>
	<path class="st0" d="M198.2,201.5c-2.7,0-5-2.2-5-5v-48.3c0-2.7,2.2-5,5-5c2.7,0,5,2.2,5,5v48.3C203.2,199.3,201,201.5,198.2,201.5
		z"/>
	<path class="st0" d="M321.8,374.9H196.2c-37.5,0-59-19.7-59-54.2V197.2c0-35.9,21.1-60.1,52.6-60.1h136.6
		c23.3,0,48.5,22.4,48.5,58.6V320C374.9,350.8,351.6,374.9,321.8,374.9z M189.8,147c-31.5,0-42.7,27-42.7,50.1v123.5
		c0,36.6,26.7,44.3,49.1,44.3h125.7c24.6,0,43.1-19.3,43.1-45V195.7c0-30.1-20-48.7-38.6-48.7H189.8z"/>
	<path class="st0" d="M256,212.7c-21,0-38,17-38,38s17,38,38,38s38-17,38-38S277,212.7,256,212.7z M256,269.6c-10.5,0-19-8.5-19-19
		s8.5-19,19-19s19,8.5,19,19S266.5,269.6,256,269.6z"/>
	<path class="st0" d="M256,310.9c-33.2,0-60.3-27-60.3-60.3s27-60.3,60.3-60.3s60.3,27,60.3,60.3S289.2,310.9,256,310.9z M256,200.3
		c-27.8,0-50.4,22.6-50.4,50.4S228.2,301,256,301s50.4-22.6,50.4-50.4S283.8,200.3,256,200.3z"/>
	<rect x="300.6" y="211" class="st0" width="69.3" height="10.7"/>
	<rect x="144.6" y="211.2" class="st0" width="65.6" height="10.4"/>
	<path class="st0" d="M341.9,187.3c0,6-4.9,10.9-10.9,10.9h-16.2c-6,0-10.9-4.9-10.9-10.9v-16.2c0-6,4.9-10.9,10.9-10.9H331
		c6,0,10.9,4.9,10.9,10.9V187.3z"/>
</g>
</svg>
