<?xml version="1.0" encoding="utf-8"?>
<!-- Generator: Adobe Illustrator 21.0.0, SVG Export Plug-In . SVG Version: 6.00 Build 0)  -->
<svg version="1.1" id="Layer_1" xmlns="http://www.w3.org/2000/svg" xmlns:xlink="http://www.w3.org/1999/xlink" x="0px" y="0px"
	 viewBox="0 0 512 512" style="enable-background:new 0 0 512 512;" xml:space="preserve">
<style type="text/css">
	.st0{fill:#FFFFFF;}
</style>
<g>
	<path class="st0" d="M374,9.7c34.2,0,66.3,13.3,90.5,37.5s37.5,56.3,37.5,90.5v236c0,34.2-13.3,66.3-37.5,90.5
		s-56.3,37.5-90.5,37.5H138c-34.2,0-66.3-13.3-90.5-37.5S10,407.9,10,373.7v-236c0-34.2,13.3-66.3,37.5-90.5S103.8,9.7,138,9.7H374
		 M374-0.3H138C61.8-0.3,0,61.5,0,137.7v236c0,76.2,61.8,138,138,138h236c76.2,0,138-61.8,138-138v-236C512,61.5,450.2-0.3,374-0.3
		L374-0.3z"/>
</g>
<path class="st0" d="M410,169.9c-10.5,4.6-21.7,7.8-33.5,9.2c12-7.2,21.2-18.6,25.6-32.2c-11.3,6.7-23.7,11.5-37,14.1
	c-10.6-11.3-25.8-18.4-42.5-18.4c-32.2,0-58.3,26.1-58.3,58.3c0,4.6,0.5,9,1.5,13.3c-48.4-2.4-91.4-25.6-120.1-60.9
	c-5,8.6-7.9,18.6-7.9,29.3c0,20.2,10.3,38.1,25.9,48.5c-9.5-0.3-18.5-2.9-26.4-7.3v0.7c0,28.2,20.1,51.8,46.7,57.1
	c-4.9,1.3-10,2-15.4,2c-3.8,0-7.4-0.4-11-1.1c7.4,23.1,28.9,40,54.4,40.5c-19.9,15.6-45.1,24.9-72.4,24.9c-4.7,0-9.3-0.3-13.9-0.8
	c25.8,16.5,56.4,26.2,89.3,26.2c107.2,0,165.8-88.8,165.8-165.8l-0.2-7.5C392.3,191.9,402.2,181.6,410,169.9z"/>
</svg>
