<?xml version="1.0" encoding="utf-8"?>
<!-- Generator: Adobe Illustrator 21.0.0, SVG Export Plug-In . SVG Version: 6.00 Build 0)  -->
<svg version="1.1" id="Layer_1" xmlns="http://www.w3.org/2000/svg" xmlns:xlink="http://www.w3.org/1999/xlink" x="0px" y="0px"
	 viewBox="0 0 512 512" style="enable-background:new 0 0 512 512;" xml:space="preserve">
<style type="text/css">
	.st0{fill:#FFFFFF;}
</style>
<g>
	<path class="st0" d="M374,9.7c34.2,0,66.3,13.3,90.5,37.5s37.5,56.3,37.5,90.5v236c0,34.2-13.3,66.3-37.5,90.5
		s-56.3,37.5-90.5,37.5H138c-34.2,0-66.3-13.3-90.5-37.5S10,407.9,10,373.7v-236c0-34.2,13.3-66.3,37.5-90.5S103.8,9.7,138,9.7H374
		 M374-0.3H138C61.8-0.3,0,61.5,0,137.7v236c0,76.2,61.8,138,138,138h236c76.2,0,138-61.8,138-138v-236C512,61.5,450.2-0.3,374-0.3
		L374-0.3z"/>
</g>
<g id="video-youtube">
	<path class="st0" d="M359.5,157.7c-7.8-2.6-55.6-5.2-103.5-5.2s-95.7,2.6-103.5,5.2c-20.7,6.5-25.9,51.7-25.9,98.3
		s5.2,91.8,25.9,98.3c7.8,2.6,55.6,5.2,103.5,5.2s95.7-2.6,103.5-5.2c20.7-6.5,25.9-51.7,25.9-98.3S380.2,164.2,359.5,157.7z
		 M230.1,314.2V197.8l77.6,58.2L230.1,314.2z"/>
</g>
</svg>
